<svg width="36" height="36" viewBox="0 0 36 36" fill="none" xmlns="http://www.w3.org/2000/svg">
  <path d="M33.75 16.0313H31.9894L28.0519 9.14767C27.8788 8.84785 27.6297 8.59898 27.3297 8.42615C27.0297 8.25333 26.6895 8.16266 26.3433 8.16329H23.0667L21.3159 3.76876C21.1709 3.40264 20.9189 3.08872 20.5928 2.86797C20.2667 2.64722 19.8816 2.52988 19.4878 2.53126H16.5122C16.1184 2.52988 15.7333 2.64722 15.4072 2.86797C15.0811 3.08872 14.8291 3.40264 14.6841 3.76876L12.9291 8.15626H9.6525C9.3063 8.15563 8.96606 8.2463 8.66608 8.41912C8.3661 8.59195 8.11701 8.84082 7.94391 9.14064L4.00641 16.0313H2.25C2.02622 16.0313 1.81161 16.1202 1.65338 16.2784C1.49514 16.4366 1.40625 16.6512 1.40625 16.875C1.40625 17.0988 1.49514 17.3134 1.65338 17.4716C1.81161 17.6299 2.02622 17.7188 2.25 17.7188H3.65625V29.25C3.65625 29.7722 3.86367 30.2729 4.23288 30.6421C4.6021 31.0113 5.10285 31.2188 5.625 31.2188H9C9.52215 31.2188 10.0229 31.0113 10.3921 30.6421C10.7613 30.2729 10.9688 29.7722 10.9688 29.25V26.7188H25.0312V29.25C25.0312 29.7722 25.2387 30.2729 25.6079 30.6421C25.9771 31.0113 26.4779 31.2188 27 31.2188H30.375C30.8971 31.2188 31.3979 31.0113 31.7671 30.6421C32.1363 30.2729 32.3438 29.7722 32.3438 29.25V17.7188H33.75C33.9738 17.7188 34.1884 17.6299 34.3466 17.4716C34.5049 17.3134 34.5938 17.0988 34.5938 16.875C34.5938 16.6512 34.5049 16.4366 34.3466 16.2784C34.1884 16.1202 33.9738 16.0313 33.75 16.0313ZM16.2506 4.39595C16.2715 4.34362 16.3075 4.29875 16.3542 4.26716C16.4008 4.23557 16.4559 4.21871 16.5122 4.21876H19.4878C19.5441 4.21871 19.5992 4.23557 19.6458 4.26716C19.6925 4.29875 19.7285 4.34362 19.7494 4.39595L21.2541 8.15626H14.7459L16.2506 4.39595ZM9.40922 9.98439C9.43388 9.94167 9.46934 9.9062 9.51204 9.88152C9.55474 9.85683 9.60318 9.84381 9.6525 9.84376H26.3475C26.3968 9.84381 26.4453 9.85683 26.488 9.88152C26.5307 9.9062 26.5661 9.94167 26.5908 9.98439L30.0459 16.0313H5.95406L9.40922 9.98439ZM9.28125 29.25C9.28125 29.3246 9.25162 29.3961 9.19887 29.4489C9.14613 29.5016 9.07459 29.5313 9 29.5313H5.625C5.55041 29.5313 5.47887 29.5016 5.42613 29.4489C5.37338 29.3961 5.34375 29.3246 5.34375 29.25V26.7188H9.28125V29.25ZM30.375 29.5313H27C26.9254 29.5313 26.8539 29.5016 26.8011 29.4489C26.7484 29.3961 26.7188 29.3246 26.7188 29.25V26.7188H30.6562V29.25C30.6562 29.3246 30.6266 29.3961 30.5739 29.4489C30.5211 29.5016 30.4496 29.5313 30.375 29.5313ZM30.6562 25.0313H5.34375V17.7188H30.6562V25.0313ZM8.15625 21.375C8.15625 21.1512 8.24514 20.9366 8.40338 20.7784C8.56161 20.6202 8.77622 20.5313 9 20.5313H11.25C11.4738 20.5313 11.6884 20.6202 11.8466 20.7784C12.0049 20.9366 12.0938 21.1512 12.0938 21.375C12.0938 21.5988 12.0049 21.8134 11.8466 21.9716C11.6884 22.1299 11.4738 22.2188 11.25 22.2188H9C8.77622 22.2188 8.56161 22.1299 8.40338 21.9716C8.24514 21.8134 8.15625 21.5988 8.15625 21.375ZM23.9062 21.375C23.9062 21.1512 23.9951 20.9366 24.1534 20.7784C24.3116 20.6202 24.5262 20.5313 24.75 20.5313H27C27.2238 20.5313 27.4384 20.6202 27.5966 20.7784C27.7549 20.9366 27.8438 21.1512 27.8438 21.375C27.8438 21.5988 27.7549 21.8134 27.5966 21.9716C27.4384 22.1299 27.2238 22.2188 27 22.2188H24.75C24.5262 22.2188 24.3116 22.1299 24.1534 21.9716C23.9951 21.8134 23.9062 21.5988 23.9062 21.375Z" fill="currentColor"/>
  </svg>
  