<svg width="24" height="24" viewBox="0 0 24 24" fill="none" xmlns="http://www.w3.org/2000/svg">
  <path d="M10.8 3.89996L4.8 8.39996C4.3 8.77996 4 9.36996 4 9.99996V19C4 20.1 4.9 21 6 21H18C19.1 21 20 20.1 20 19V9.99996C20 9.36996 19.7 8.77996 19.2 8.39996L13.2 3.89996C12.8532 3.64184 12.4323 3.50244 12 3.50244C11.5677 3.50244 11.1468 3.64184 10.8 3.89996ZM12.5 12.5C12.5 13.33 11.83 14 11 14V17.5C11 17.78 10.78 18 10.5 18C10.22 18 10 17.78 10 17.5V14C9.17 14 8.5 13.33 8.5 12.5V9.99996C8.5 9.71996 8.72 9.49996 9 9.49996C9.28 9.49996 9.5 9.71996 9.5 9.99996V12.5H10V9.99996C10 9.71996 10.22 9.49996 10.5 9.49996C10.78 9.49996 11 9.71996 11 9.99996V12.5H11.5V9.99996C11.5 9.71996 11.72 9.49996 12 9.49996C12.28 9.49996 12.5 9.71996 12.5 9.99996V12.5ZM14.5 18C14.22 18 14 17.78 14 17.5V14.5H13.5C13.22 14.5 13 14.28 13 14V11.5C13 10.62 13.57 9.86996 14.36 9.60996C14.67 9.49996 15 9.74996 15 10.09V17.5C15 17.78 14.78 18 14.5 18Z" fill="currentColor"/>
  </svg>
  