<svg width="36" height="36" viewBox="0 0 36 36" fill="none" xmlns="http://www.w3.org/2000/svg">
  <path d="M32.115 13.75H32.75V18C32.75 19.4777 31.9176 21.5466 29.7426 22.1079L29.6057 22.1433L29.5654 22.2787C29.2085 23.4778 28.3312 24.6862 26.7409 25.1084L26.6055 25.1443L26.5654 25.2786C26.3439 26.022 25.928 26.7642 25.2728 27.3193C24.621 27.8714 23.7191 28.25 22.5 28.25H17.115H17.0112L16.9379 28.3236L12.8882 32.3882C12.3412 32.9353 11.4271 33.425 10.44 33.425C9.68241 33.425 8.87569 33.1521 8.11179 32.3882L3.61371 27.8902C3.13469 27.3892 2.69698 26.6286 2.5977 25.7803C2.49968 24.9429 2.72859 24.0026 3.61153 23.1121C3.61185 23.1117 3.61217 23.1114 3.6125 23.1111L4.67553 22.063L4.75002 21.9896V21.885V15.9886L11.3368 9.40179L11.3664 9.37215L11.3848 9.33447C12.1892 7.68252 13.7593 6.25002 16.5 6.25002H20.385H20.489L20.5623 6.17627L23.1101 3.61348C23.6111 3.13455 24.3716 2.69696 25.2197 2.5977C26.0574 2.49965 26.9979 2.7287 27.8886 3.61214C27.8887 3.61226 27.8888 3.61238 27.889 3.6125L32.3863 8.10987C32.865 8.61049 33.303 9.3748 33.4023 10.2253C33.5004 11.0647 33.2714 12.0043 32.3897 12.8868L31.9413 13.3203L31.4967 13.75H32.115ZM24.25 24V22.75H25.5C26.17 22.75 26.6249 22.5188 26.9039 22.1554C27.1737 21.804 27.25 21.3662 27.25 21V19.75H28.5C29.17 19.75 29.6249 19.5188 29.9039 19.1554C30.1737 18.804 30.25 18.3662 30.25 18V16.5V16.25H30H19.5H19.25V16.5C19.25 17.3592 18.9644 18.4273 18.2917 19.2753C17.6261 20.1142 16.5729 20.75 15 20.75C13.4271 20.75 12.3739 20.1142 11.7084 19.2753C11.0357 18.4273 10.75 17.3592 10.75 16.5V14.115V13.5115L10.3232 13.9382L7.32324 16.9382L7.25002 17.0115V17.115V23.012L5.38824 24.8882L5.38756 24.8889L5.38364 24.8928C5.30445 24.972 5.14871 25.1276 5.10262 25.3523C5.05069 25.6054 5.14697 25.8681 5.39745 26.1358L5.39734 26.1359L5.40354 26.1421L9.88824 30.6118L9.88854 30.6121L9.89283 30.6164C9.97195 30.6956 10.1275 30.8513 10.3523 30.8974C10.6054 30.9493 10.8681 30.8531 11.1358 30.6026L11.1359 30.6027L11.1418 30.5968L15.9886 25.75H22.5C23.17 25.75 23.6249 25.5188 23.9039 25.1554C24.1737 24.804 24.25 24.3662 24.25 24ZM27.885 13.75H27.989L28.0623 13.6763L30.6118 11.1118L30.6123 11.1113L30.6164 11.1072C30.6956 11.0281 30.8513 10.8725 30.8974 10.6478C30.9494 10.3946 30.8531 10.132 30.6026 9.86423L30.6027 9.86412L30.5965 9.85794L26.1118 5.38824L26.1115 5.38794L26.1072 5.38364C26.0281 5.30445 25.8725 5.14871 25.6478 5.10262C25.3946 5.05069 25.132 5.14697 24.8642 5.39745L24.8641 5.39735L24.8582 5.40324L21.5115 8.75002H16.5C15.0421 8.75002 14.2106 9.37139 13.7575 10.1106C13.3161 10.8307 13.25 11.634 13.25 12V16.5C13.25 16.8662 13.3263 17.304 13.5961 17.6554C13.8751 18.0188 14.3301 18.25 15 18.25C15.67 18.25 16.1249 18.0188 16.4039 17.6554C16.6737 17.304 16.75 16.8662 16.75 16.5V13.75H27.885Z" fill="currentColor" stroke="white" stroke-width="0.5"/>
  </svg>
  