<svg width="36" height="36" viewBox="0 0 36 36" fill="none" xmlns="http://www.w3.org/2000/svg">
  <path d="M3 14.9999L16.1259 4.49919C17.2215 3.62267 18.7785 3.62267 19.8741 4.49919L33 14.9999" stroke="currentColor" stroke-width="1.71215" stroke-linecap="round" stroke-linejoin="round"/>
  <path d="M14.2164 6.07397L8.21645 10.949C7.12707 11.8341 6.58237 12.2766 6.29118 12.8884C6 13.5002 6 14.202 6 15.6057V20.9998C6 26.6566 6 29.4852 7.75735 31.2424C9.51472 32.9998 12.3431 32.9998 18 32.9998C23.6568 32.9998 26.4853 32.9998 28.2426 31.2424C30 29.4852 30 26.6566 30 20.9998V15.6057C30 14.202 30 13.5002 29.7089 12.8884C29.4176 12.2766 28.8729 11.8341 27.7836 10.949L21.7836 6.07397C19.9713 4.60148 19.0651 3.86523 18 3.86523C16.9349 3.86523 16.0287 4.60148 14.2164 6.07397Z" stroke="currentColor" stroke-width="2"/>
  <path d="M14.625 24.375H21.375" stroke="currentColor" stroke-width="1.71215" stroke-linecap="round"/>
  </svg>
  