<svg width="36" height="36" viewBox="0 0 36 36" fill="none" xmlns="http://www.w3.org/2000/svg">
  <path d="M27 12L28.423 12.4743C29.908 12.9694 30.6505 13.2169 31.0753 13.8061C31.5 14.3954 31.5 15.1781 31.5 16.7435V25.2435C31.5 27.1799 31.5 28.148 30.9904 28.77C30.8173 28.9812 30.6072 29.1591 30.3705 29.2952C29.6731 29.6955 28.7183 29.5364 26.8082 29.2181C24.9236 28.904 23.9813 28.7469 23.0472 28.8251C22.7195 28.8525 22.3938 28.9014 22.0725 28.9716C21.1569 29.1716 20.2948 29.6025 18.5709 30.4646C16.3214 31.5894 15.1965 32.1518 13.9993 32.3252C13.6386 32.3774 13.2747 32.4032 12.9103 32.4024C11.7005 32.4002 10.5178 32.006 8.15232 31.2174L7.57698 31.0257C6.09194 30.5307 5.3494 30.2832 4.92471 29.6939C4.5 29.1047 4.5 28.322 4.5 26.7566V19.362C4.5 16.8737 4.5 15.6296 5.23261 14.9604C5.36082 14.8433 5.50214 14.7414 5.65376 14.6568C6.52022 14.1734 7.70053 14.5668 10.0612 15.3537" stroke="currentColor" stroke-width="1.5"/>
  <path d="M9 11.5505C9 6.82816 13.0294 3 18 3C22.9705 3 27 6.82816 27 11.5505C27 16.2357 24.1275 21.703 19.6458 23.6581C18.6011 24.114 17.3989 24.114 16.3542 23.6581C11.8725 21.703 9 16.2357 9 11.5505Z" stroke="currentColor" stroke-width="1.5"/>
  <path d="M18 15C19.6569 15 21 13.6569 21 12C21 10.3431 19.6569 9 18 9C16.3431 9 15 10.3431 15 12C15 13.6569 16.3431 15 18 15Z" stroke="currentColor" stroke-width="1.5"/>
  </svg>
  