<svg width="24" height="24" viewBox="0 0 24 24" fill="none" xmlns="http://www.w3.org/2000/svg">
  <path d="M17.657 16.6572L13.414 20.9002C13.2284 21.0859 13.0081 21.2333 12.7656 21.3338C12.523 21.4344 12.2631 21.4861 12.0005 21.4861C11.738 21.4861 11.478 21.4344 11.2354 21.3338C10.9929 21.2333 10.7726 21.0859 10.587 20.9002L6.343 16.6572C5.22422 15.5384 4.46234 14.1129 4.15369 12.5611C3.84504 11.0092 4.00349 9.40071 4.60901 7.93893C5.21452 6.47714 6.2399 5.22774 7.55548 4.3487C8.87107 3.46967 10.4178 3.00049 12 3.00049C13.5822 3.00049 15.1289 3.46967 16.4445 4.3487C17.7601 5.22774 18.7855 6.47714 19.391 7.93893C19.9965 9.40071 20.155 11.0092 19.8463 12.5611C19.5377 14.1129 18.7758 15.5384 17.657 16.6572Z" stroke="currentColor" stroke-width="2" stroke-linecap="round" stroke-linejoin="round"/>
  <path d="M15 11C15 11.7956 14.6839 12.5587 14.1213 13.1213C13.5587 13.6839 12.7956 14 12 14C11.2044 14 10.4413 13.6839 9.87868 13.1213C9.31607 12.5587 9 11.7956 9 11C9 10.2044 9.31607 9.44129 9.87868 8.87868C10.4413 8.31607 11.2044 8 12 8C12.7956 8 13.5587 8.31607 14.1213 8.87868C14.6839 9.44129 15 10.2044 15 11Z" stroke="currentColor" stroke-width="2" stroke-linecap="round" stroke-linejoin="round"/>
  </svg>
  