<svg width="18" height="18" viewBox="0 0 18 18" fill="none" xmlns="http://www.w3.org/2000/svg">
  <path d="M1 10.6002C1 7.58324 1 6.07472 1.93726 5.13745C2.87452 4.2002 4.38301 4.2002 7.4 4.2002H10.6C13.617 4.2002 15.1255 4.2002 16.0627 5.13745C17 6.07472 17 7.58324 17 10.6002C17 13.6172 17 15.1257 16.0627 16.0629C15.1255 17.0002 13.617 17.0002 10.6 17.0002H7.4C4.38301 17.0002 2.87452 17.0002 1.93726 16.0629C1 15.1257 1 13.6172 1 10.6002Z" stroke="#D70000"/>
  <path d="M12.1998 4.2C12.1998 2.6915 12.1998 1.93726 11.7312 1.46863C11.2625 1 10.5083 1 8.9998 1C7.49132 1 6.73706 1 6.26844 1.46863C5.7998 1.93726 5.7998 2.6915 5.7998 4.2" stroke="#D70000"/>
  <path d="M10.1998 10.5999H7.7998M8.9998 9.3999V11.7999" stroke="#D70000" stroke-linecap="round"/>
  <path d="M8.9998 13.7999C10.7671 13.7999 12.1998 12.3672 12.1998 10.5999C12.1998 8.83259 10.7671 7.3999 8.9998 7.3999C7.23249 7.3999 5.7998 8.83259 5.7998 10.5999C5.7998 12.3672 7.23249 13.7999 8.9998 13.7999Z" stroke="#D70000"/>
  </svg>
  