<svg xmlns="http://www.w3.org/2000/svg" width="25" height="24" viewBox="0 0 25 24" fill="none">
  <path d="M6.5 10.5C6.10218 10.5 5.72064 10.658 5.43934 10.9393C5.15804 11.2206 5 11.6022 5 12C5 12.3978 5.15804 12.7794 5.43934 13.0607C5.72064 13.342 6.10218 13.5 6.5 13.5C6.89782 13.5 7.27936 13.342 7.56066 13.0607C7.84196 12.7794 8 12.3978 8 12C8 11.6022 7.84196 11.2206 7.56066 10.9393C7.27936 10.658 6.89782 10.5 6.5 10.5ZM11 12C11 11.6022 11.158 11.2206 11.4393 10.9393C11.7206 10.658 12.1022 10.5 12.5 10.5C12.8978 10.5 13.2794 10.658 13.5607 10.9393C13.842 11.2206 14 11.6022 14 12C14 12.3978 13.842 12.7794 13.5607 13.0607C13.2794 13.342 12.8978 13.5 12.5 13.5C12.1022 13.5 11.7206 13.342 11.4393 13.0607C11.158 12.7794 11 12.3978 11 12ZM17 12C17 11.6022 17.158 11.2206 17.4393 10.9393C17.7206 10.658 18.1022 10.5 18.5 10.5C18.8978 10.5 19.2794 10.658 19.5607 10.9393C19.842 11.2206 20 11.6022 20 12C20 12.3978 19.842 12.7794 19.5607 13.0607C19.2794 13.342 18.8978 13.5 18.5 13.5C18.1022 13.5 17.7206 13.342 17.4393 13.0607C17.158 12.7794 17 12.3978 17 12Z" fill="black"/>
</svg>