<svg width="21" height="18" viewBox="0 0 21 18" fill="none" xmlns="http://www.w3.org/2000/svg">
  <path d="M4.03876 7.89911C6.7166 3.2997 8.05551 1 10.1758 1C12.2961 1 13.635 3.2997 16.3129 7.89911L16.6465 8.47227C18.8718 12.2943 19.9845 14.2053 18.9788 15.6027C17.9732 17 15.4853 17 10.5095 17H9.84209C4.86629 17 2.37836 17 1.37278 15.6027C0.367181 14.2053 1.47981 12.2943 3.70508 8.47227L4.03876 7.89911Z" stroke="#D10303" stroke-width="1.5"/>
  <path d="M10.1758 5.44434V9.88878" stroke="#D10303" stroke-width="1.5" stroke-linecap="round"/>
  <path d="M10.1759 13.4448C10.6826 13.4448 11.0935 13.0468 11.0935 12.5559C11.0935 12.065 10.6826 11.667 10.1759 11.667C9.66912 11.667 9.2583 12.065 9.2583 12.5559C9.2583 13.0468 9.66912 13.4448 10.1759 13.4448Z" fill="#D10303"/>
  </svg>
  