<svg width="12" height="16" viewBox="0 0 12 16" fill="none" xmlns="http://www.w3.org/2000/svg">
  <path d="M3.54145 4.04556V11.7742H8.47964V4.04858C9.39647 3.94661 10.2939 4.63627 10.4501 5.57245C10.4944 5.83748 10.4609 6.11583 10.4626 6.38774C10.4664 6.95091 10.4566 7.51495 10.4781 8.07726C10.4944 8.50017 10.5435 8.92266 10.5916 9.34343C10.6398 9.76376 10.7048 10.1824 10.7637 10.6126C10.3649 10.675 10.0065 10.8316 9.67956 11.0626C9.36764 11.2829 9.11854 11.5608 8.92794 11.8904C8.8974 11.9433 8.88148 12.0096 8.87675 12.0711C8.81393 12.9057 8.75413 13.7408 8.69347 14.5759C8.66894 14.911 8.6427 15.2462 8.61689 15.5895H3.40722C3.37366 15.1257 3.33882 14.6671 3.30827 14.208C3.26094 13.5012 3.22093 12.7939 3.16543 12.0879C3.15769 11.9872 3.08541 11.8887 3.03335 11.7949C2.99979 11.7346 2.9473 11.6856 2.90471 11.6305C2.48524 11.0876 2.00209 10.6483 1.26123 10.6341C1.32706 10.1312 1.39718 9.64373 1.45397 9.15498C1.55852 8.25795 1.60197 7.35834 1.56626 6.45486C1.55379 6.14122 1.52711 5.81553 1.59165 5.51351C1.77364 4.65692 2.40564 4.14667 3.31687 4.06234C3.38485 4.05589 3.45326 4.05202 3.54231 4.04556H3.54145Z" fill="currentColor"/>
  <path d="M4.00405 4.02653H4.7449V3.30718C4.60551 3.30718 4.47343 3.30848 4.34135 3.30718C3.7984 3.3003 3.44432 2.89029 3.50971 2.35379C3.57468 1.8216 3.63534 1.28854 3.69256 0.755485C3.74118 0.302452 4.06342 0.00215115 4.51903 0.00129069C5.51717 -0.000430231 6.51487 -0.000430231 7.51301 0.00129069C7.96002 0.00215115 8.28398 0.301162 8.3326 0.74473C8.39154 1.27779 8.4522 1.81041 8.51631 2.34304C8.5817 2.88599 8.24311 3.2861 7.69414 3.30589C7.5612 3.31063 7.42782 3.30675 7.27337 3.30675V4.02653H8.02541V7.3221H4.00362V4.02696L4.00405 4.02653ZM5.20568 4.0218H6.81432V3.31794H5.20568V4.0218Z" fill="currentColor"/>
  <path d="M3.99805 7.7915H8.02716V11.328H3.99805V7.7915Z" fill="currentColor"/>
  <path d="M2.91869 15.5793C1.70544 15.6748 0.545108 15.0665 0.152307 13.6872C0.0219468 13.2298 -0.061518 12.7626 0.0567955 12.2906C0.211248 11.6754 0.580817 11.2473 1.21627 11.1135C1.37976 11.0791 1.5811 11.1269 1.74115 11.1936C2.17009 11.3725 2.42134 11.7537 2.69282 12.1056C2.71605 12.1358 2.71476 12.1878 2.7182 12.23C2.78575 13.1446 2.85459 14.0593 2.91654 14.974C2.92988 15.1715 2.91869 15.3702 2.91869 15.5789V15.5793Z" fill="currentColor"/>
  <path d="M9.06928 15.5915C9.10757 15.0124 9.14328 14.4561 9.18114 13.8998C9.219 13.3487 9.256 12.7976 9.30117 12.2473C9.30849 12.1566 9.33903 12.0567 9.3898 11.9819C9.67935 11.5542 10.0747 11.2625 10.5708 11.1158C10.6525 11.0917 10.7541 11.0879 10.8349 11.112C11.5117 11.3159 11.8912 11.784 11.9807 12.4758C12.0895 13.3165 11.7483 14.6368 10.7132 15.234C10.2103 15.5244 9.66644 15.6199 9.06885 15.5911L9.06928 15.5915Z" fill="currentColor"/>
</svg>
  