<svg width="17" height="17" viewBox="0 0 17 17" fill="none" xmlns="http://www.w3.org/2000/svg">
<path d="M7.8255 0.379735C8.11055 0.134073 8.46644 0 8.8335 0C9.20055 0 9.55644 0.134073 9.8415 0.379735L15.9439 5.632C16.2214 5.87072 16.4452 6.1722 16.5991 6.51448C16.753 6.85675 16.8331 7.2312 16.8335 7.61052V15.3002C16.8335 15.751 16.6649 16.1834 16.3649 16.5022C16.0648 16.8209 15.6578 17 15.2335 17H12.8335C12.4092 17 12.0022 16.8209 11.7021 16.5022C11.4021 16.1834 11.2335 15.751 11.2335 15.3002V11.0508C11.2335 10.8254 11.1492 10.6093 10.9992 10.4499C10.8492 10.2905 10.6457 10.201 10.4335 10.201H7.2335C7.02132 10.201 6.81784 10.2905 6.66781 10.4499C6.51778 10.6093 6.4335 10.8254 6.4335 11.0508V15.3002C6.4335 15.751 6.26493 16.1834 5.96487 16.5022C5.66481 16.8209 5.25784 17 4.8335 17H2.4335C2.00915 17 1.60218 16.8209 1.30213 16.5022C1.00207 16.1834 0.833496 15.751 0.833496 15.3002V7.61222C0.833425 7.23233 0.913266 6.85722 1.06718 6.51431C1.2211 6.17141 1.44519 5.86938 1.7231 5.6303L7.8255 0.379735Z" fill="#1A1A1A"/>
</svg>
