<svg width="512" height="512" viewBox="0 0 512 512" fill="none" xmlns="http://www.w3.org/2000/svg">
<path d="M496.93 193.052C498.35 241.477 477.726 278.273 461.737 305.991C438.413 346.417 413.221 371.236 386.309 395.182C365.162 414.004 343.225 431.762 318.107 445.177C295.431 457.287 271.568 464.347 245.528 462.146C227.172 460.593 210.136 454.721 194.121 445.933C157.209 425.682 125.961 398.239 97.0973 368.013C66.5224 335.993 41.7867 300.118 26.9437 257.981C18.8867 235.123 14.0276 211.625 15.3483 187.387C18.488 129.984 43.1157 85.6372 96.9811 61.4829C136.485 43.7742 176.388 47.8359 214.978 65.5446C227.803 71.4337 239.614 79.582 251.683 87.0409C254.706 88.9098 256.534 89.267 259.582 87.0243C283.504 69.4319 309.685 56.9229 339.304 52.3877C376.225 46.7395 410.995 55.3198 438.305 74.5817C477.103 101.95 488.001 142.842 491.672 156.489C493.018 161.489 496.407 175.094 496.93 193.052ZM142.74 275.366C143.354 263.297 142.765 251.669 144.716 240.472C152.84 193.941 190.874 158.424 236.965 153.341C284.343 148.116 328.714 173.923 347.287 217.746C348.832 221.384 350.692 222.365 354.43 222.19C369.082 221.526 383.501 223.328 397.58 227.423C421.926 234.5 439.709 248.562 446.562 274.054C447.11 276.097 447.575 278.165 448.073 280.225C448.547 280.325 449.012 280.425 449.485 280.524C453.846 269.585 458.664 258.804 462.485 247.682C473.183 216.567 476.24 185.02 466.322 153.008C449.735 99.4752 400.728 68.1943 345.26 75.6532C315.856 79.6069 290.647 92.7639 267.606 110.747C263.519 113.936 259.541 117.259 255.786 120.29C248.037 114.343 240.902 108.321 233.243 103.072C202.552 82.0406 169.228 69.598 131.468 76.027C90.9508 82.9211 63.1086 106.419 48.2988 144.619C38.4311 170.086 39.4942 196.483 42.9081 223.22C45.0926 240.281 53.5316 251.81 67.2451 260.789C90.1783 275.798 115.603 277.85 141.909 275.665C142.524 275.615 143.113 275.208 142.715 275.366H142.74ZM66.3314 287.227C66.3065 287.161 66.4311 287.651 66.6636 288.074C67.5607 289.703 68.4661 291.331 69.413 292.934C89.3726 326.673 115.313 355.313 144.733 380.929C165.44 398.953 186.737 416.23 211.755 428.149C229.871 436.771 248.784 440.991 268.91 437.701C286.062 434.902 301.62 427.958 316.23 418.863C348.956 398.488 376.965 372.556 403.619 344.93C416.734 331.341 424.476 315.809 426.403 297.02C428.504 276.579 419.342 259.236 400.205 251.976C390.379 248.247 379.73 245.821 369.265 244.8C343.458 242.299 318.365 247.325 293.936 255.215C268.852 263.314 244.066 272.343 219.065 280.715C208.549 284.237 197.818 287.128 186.662 290.458C187.742 292.394 188.573 294.005 189.511 295.542C207.295 324.696 243.41 336.782 274.882 324.314C292.175 317.462 304.726 305.451 312.941 288.772C313.639 287.36 315.79 285.433 316.895 285.649C327.925 287.8 338.881 290.35 350.119 292.851C349.438 294.919 348.981 296.538 348.366 298.1C333.091 337.23 294.808 364.317 253.17 365.471C209.662 366.684 170.083 342.38 152.69 303.242C150.439 298.183 147.864 297.469 142.889 297.51C128.885 297.627 114.74 298.017 100.918 296.231C89.1899 294.719 77.8354 290.342 66.3231 287.227H66.3314ZM180.425 269.884C224.09 255.365 267.556 240.921 310.989 226.484C299.202 201.192 265.72 181.415 229.555 191.84C196.505 201.367 174.536 235.497 180.425 269.884Z" fill="url(#paint0_linear_287_1636)"/>
<defs>
<linearGradient id="paint0_linear_287_1636" x1="-30.5265" y1="494.374" x2="487.013" y2="-23.165" gradientUnits="userSpaceOnUse">
<stop stop-color="#FF0000"/>
<stop offset="1" stop-color="#FF5757"/>
</linearGradient>
</defs>
</svg>
