<?xml version="1.0" encoding="UTF-8"?><svg id="Layer_2" xmlns="http://www.w3.org/2000/svg" xmlns:xlink="http://www.w3.org/1999/xlink" viewBox="0 0 1158.06 331.07"><defs><style>.cls-1{fill:url(#linear-gradient);}.cls-1,.cls-2{stroke-width:0px;}</style><linearGradient id="linear-gradient" x1="17.61" y1="302.35" x2="372.61" y2="-52.64" gradientUnits="userSpaceOnUse"><stop offset="0" stop-color="red"/><stop offset="1" stop-color="#ff5757"/></linearGradient></defs><g id="Layer_1-2"><path class="cls-2" d="m437.86,161.65c1.81,8.59,5.95,15.18,12.43,19.78,6.48,4.6,14.39,6.89,23.73,6.89,12.96,0,22.68-4.67,29.16-14.01l20.12,11.75c-11.15,16.42-27.65,24.64-49.5,24.64-18.38,0-33.22-5.61-44.53-16.84-11.3-11.22-16.95-25.43-16.95-42.6s5.57-31,16.72-42.38c11.15-11.38,25.46-17.06,42.94-17.06,16.57,0,30.17,5.8,40.8,17.4,10.62,11.6,15.93,25.69,15.93,42.27,0,2.56-.3,5.95-.9,10.17h-89.96Zm-.22-19.89h66.45c-1.66-9.19-5.46-16.12-11.41-20.79-5.96-4.67-12.92-7.01-20.91-7.01-9.04,0-16.58,2.49-22.6,7.46-6.03,4.97-9.87,11.75-11.53,20.34Z"/><path class="cls-2" d="m639.46,94.75h23.96v107.81c0,17.18-5.65,30.36-16.95,39.55-11.3,9.19-25.01,13.79-41.13,13.79-26.07,0-43.93-9.12-53.57-27.35l21.02-12.21c5.88,11.6,16.87,17.4,33,17.4,10.54,0,18.79-2.75,24.75-8.25,5.95-5.5,8.93-13.15,8.93-22.94v-13.79c-9.19,13.11-22.3,19.66-39.33,19.66-15.97,0-29.46-5.69-40.46-17.06-11-11.38-16.5-25.12-16.5-41.25s5.5-29.87,16.5-41.25c11-11.38,24.48-17.06,40.46-17.06,17.03,0,30.13,6.55,39.33,19.66v-16.73Zm-61.59,80.69c6.85,6.78,15.4,10.17,25.65,10.17s18.79-3.39,25.65-10.17c6.86-6.78,10.29-15.22,10.29-25.31s-3.43-18.53-10.29-25.31c-6.86-6.78-15.41-10.17-25.65-10.17s-18.8,3.39-25.65,10.17c-6.86,6.78-10.29,15.22-10.29,25.31s3.43,18.53,10.29,25.31Z"/><path class="cls-2" d="m751.34,91.81c12.96,0,23.43,4.15,31.42,12.43,7.99,8.29,11.98,19.66,11.98,34.13v69.39h-24.41v-66.9c0-8.44-2.26-14.92-6.78-19.44-4.52-4.52-10.7-6.78-18.53-6.78-8.59,0-15.52,2.68-20.79,8.02-5.28,5.35-7.91,13.53-7.91,24.52v60.57h-24.41V49.55h24.41v59.67c7.38-11.6,19.06-17.4,35.03-17.4Z"/><path class="cls-2" d="m910.46,94.75h24.41v113.01h-24.41v-16.27c-9.19,12.81-22.38,19.21-39.55,19.21-15.52,0-28.78-5.76-39.78-17.29-11-11.53-16.5-25.57-16.5-42.15s5.5-30.81,16.5-42.27c11-11.45,24.26-17.18,39.78-17.18,17.18,0,30.36,6.33,39.55,18.99v-16.05Zm-61.25,82.38c6.78,6.86,15.29,10.28,25.54,10.28s18.76-3.43,25.54-10.28c6.78-6.86,10.17-15.48,10.17-25.88s-3.39-19.02-10.17-25.88c-6.78-6.85-15.29-10.28-25.54-10.28s-18.76,3.43-25.54,10.28c-6.78,6.86-10.17,15.48-10.17,25.88s3.39,19.02,10.17,25.88Z"/><path class="cls-2" d="m1026.4,118.25h-28.03v54.24c0,4.67,1.05,8.02,3.16,10.06,2.11,2.03,5.23,3.16,9.38,3.39,4.14.23,9.3.19,15.48-.11v21.92c-18.69,2.26-32.09.64-40.23-4.86s-12.21-15.63-12.21-30.4v-54.24h-20.79v-23.51h20.79v-24.41l24.41-7.23v31.64h28.03v23.51Z"/><path class="cls-2" d="m1133.54,94.75h24.41v113.01h-24.41v-16.27c-9.19,12.81-22.38,19.21-39.55,19.21-15.52,0-28.78-5.76-39.78-17.29-11-11.53-16.5-25.57-16.5-42.15s5.5-30.81,16.5-42.27c11-11.45,24.26-17.18,39.78-17.18,17.18,0,30.36,6.33,39.55,18.99v-16.05Zm-61.25,82.38c6.78,6.86,15.29,10.28,25.54,10.28s18.76-3.43,25.54-10.28c6.78-6.86,10.17-15.48,10.17-25.88s-3.39-19.02-10.17-25.88c-6.78-6.85-15.29-10.28-25.54-10.28s-18.76,3.43-25.54,10.28c-6.78,6.86-10.17,15.48-10.17,25.88s3.39,19.02,10.17,25.88Z"/><path class="cls-1" d="m386.7,114.77c1.14,38.87-15.41,68.4-28.25,90.65-18.72,32.45-38.94,52.37-60.54,71.59-16.98,15.11-34.58,29.36-54.74,40.13-18.2,9.72-37.35,15.39-58.25,13.62-14.74-1.25-28.41-5.96-41.26-13.01-29.62-16.25-54.71-38.28-77.87-62.54-24.54-25.7-44.39-54.49-56.31-88.31C3.01,148.53-.89,129.68.17,110.22,2.69,64.14,22.46,28.55,65.69,9.17c31.71-14.22,63.74-10.95,94.71,3.26,10.3,4.72,19.78,11.27,29.46,17.25,2.43,1.5,3.9,1.78,6.34-.01,19.2-14.12,40.21-24.16,63.99-27.8,29.63-4.54,57.54,2.35,79.46,17.81,31.14,21.97,39.89,54.78,42.83,65.74,1.08,4.01,3.8,14.93,4.22,29.35ZM102.42,180.83c.49-9.69.02-19.02,1.59-28,6.52-37.35,37.05-65.85,74.04-69.93,38.03-4.19,73.64,16.52,88.55,51.69,1.24,2.92,2.73,3.7,5.73,3.57,11.76-.54,23.33.91,34.63,4.2,19.54,5.68,33.82,16.97,39.31,37.43.44,1.64.81,3.3,1.22,4.95.38.08.76.16,1.13.24,3.5-8.78,7.37-17.43,10.44-26.36,8.59-24.98,11.04-50.29,3.08-75.99-13.31-42.97-52.65-68.07-97.17-62.08-23.6,3.17-43.83,13.73-62.32,28.17-3.28,2.56-6.48,5.22-9.49,7.66-6.22-4.78-11.94-9.61-18.09-13.82-24.63-16.88-51.38-26.87-81.69-21.71-32.52,5.53-54.87,24.4-66.75,55.05-7.92,20.44-7.07,41.63-4.32,63.09,1.75,13.7,8.52,22.95,19.53,30.15,18.4,12.04,38.81,13.69,59.93,11.94.5-.04.97-.37.65-.24Zm-61.32,9.52c-.02-.06.08.34.27.68.72,1.31,1.45,2.62,2.21,3.9,16.02,27.08,36.84,50.07,60.46,70.63,16.62,14.47,33.71,28.34,53.79,37.9,14.54,6.92,29.72,10.3,45.87,7.66,13.77-2.25,26.26-7.82,37.98-15.12,26.26-16.35,48.75-37.16,70.14-59.34,10.52-10.91,16.74-23.37,18.29-38.45,1.69-16.41-5.67-30.32-21.02-36.15-7.89-2.99-16.43-4.94-24.83-5.76-20.71-2.01-40.85,2.03-60.46,8.36-20.14,6.5-40.03,13.74-60.1,20.46-8.44,2.83-17.06,5.14-26.01,7.82.87,1.55,1.53,2.84,2.29,4.08,14.27,23.4,43.26,33.1,68.52,23.09,13.88-5.5,23.95-15.14,30.55-28.53.56-1.13,2.29-2.68,3.18-2.51,8.85,1.73,17.65,3.77,26.67,5.78-.55,1.66-.92,2.96-1.4,4.21-12.26,31.41-42.99,53.15-76.41,54.08-34.92.97-66.68-18.53-80.65-49.95-1.8-4.06-3.87-4.64-7.86-4.6-11.24.09-22.59.4-33.69-1.02-9.41-1.21-18.52-4.73-27.77-7.23Zm91.57-13.92c35.05-11.65,69.93-23.25,104.8-34.83-9.46-20.3-36.34-36.18-65.36-27.81-26.53,7.65-44.16,35.04-39.44,62.64Z"/><path class="cls-2" d="m701.37,274.37h-9.58v-2.99h9.58c1.68,0,3.13-.3,4.35-.89s2.22-1.37,3.01-2.32c.77-.96,1.36-2.03,1.75-3.24.38-1.22.57-2.45.57-3.71s-.19-2.54-.57-3.78c-.4-1.24-.99-2.33-1.78-3.29-.79-.95-1.79-1.73-3.01-2.32-1.2-.59-2.64-.9-4.32-.91h-4.79v-2.92h4.79c2.16,0,4.04.38,5.66,1.14,1.6.74,2.93,1.73,4,2.96,1.07,1.24,1.87,2.64,2.4,4.22.53,1.6.79,3.23.79,4.89v2.47c0,1.28.21,2.4.62,3.36.4.96.92,1.75,1.58,2.4.67.64,1.45,1.12,2.32,1.43.89.33,1.83.49,2.82.49.41,0,.76.15,1.05.44s.43.64.43,1.04-.14.77-.43,1.06-.64.44-1.05.44c-1.35,0-2.66-.22-3.93-.67-1.25-.43-2.36-1.09-3.34-1.98-.86-.82-1.57-1.8-2.15-2.94-.33.51-.7,1-1.11,1.48-1.07,1.23-2.41,2.22-4,2.96-1.61.76-3.5,1.14-5.66,1.14Z"/><path class="cls-2" d="m721.55,274.37v-2.99h6c.43,0,.79.14,1.07.43s.43.64.43,1.05-.14.79-.43,1.07-.65.43-1.07.43h-6Z"/><path class="cls-2" d="m727.55,274.37v-2.99h6c.43,0,.79.14,1.08.43s.43.64.43,1.05-.14.79-.43,1.07-.65.43-1.08.43h-6Z"/><path class="cls-2" d="m733.56,274.37v-2.99h6c.43,0,.79.14,1.08.43.29.29.43.64.43,1.05s-.14.79-.43,1.07c-.29.29-.65.43-1.08.43h-6Z"/><path class="cls-2" d="m739.56,274.37v-2.99h6c.43,0,.79.14,1.07.43s.43.64.43,1.05-.14.79-.43,1.07-.65.43-1.07.43h-6Z"/><path class="cls-2" d="m745.56,274.37v-2.99h6c.43,0,.79.14,1.08.43s.43.64.43,1.05-.14.79-.43,1.07-.65.43-1.08.43h-6Z"/><path class="cls-2" d="m751.56,274.37v-2.99h6c.43,0,.79.14,1.08.43.29.29.43.64.43,1.05s-.14.79-.43,1.07c-.29.29-.65.43-1.08.43h-6Z"/><path class="cls-2" d="m757.57,274.37v-2.99h6c.43,0,.79.14,1.07.43s.43.64.43,1.05-.14.79-.43,1.07-.65.43-1.07.43h-6Z"/><path class="cls-2" d="m763.57,274.37v-2.99h6c.43,0,.79.14,1.08.43s.43.64.43,1.05-.14.79-.43,1.07-.65.43-1.08.43h-6Z"/><path class="cls-2" d="m769.57,274.37v-2.99h6c.43,0,.79.14,1.08.43.29.29.43.64.43,1.05s-.14.79-.43,1.07c-.29.29-.65.43-1.08.43h-6Z"/><path class="cls-2" d="m775.57,274.37v-2.99h6c.43,0,.79.14,1.07.43s.43.64.43,1.05-.14.79-.43,1.07-.65.43-1.07.43h-6Z"/><path class="cls-2" d="m781.58,274.37v-2.99h6c.43,0,.79.14,1.08.43s.43.64.43,1.05-.14.79-.43,1.07-.65.43-1.08.43h-6Z"/><path class="cls-2" d="m790.47,251.15v7.09h-2.89v-5.9l-.02.02v-3.31c1.6-.69,3.41-1.04,5.43-1.04,2.14,0,4.02.38,5.63,1.14,1.61.74,2.95,1.73,4,2.96,1.07,1.24,1.87,2.64,2.4,4.22.53,1.58.79,3.21.79,4.89s-.26,3.29-.79,4.87c-.53,1.56-1.33,2.96-2.4,4.17-1.05,1.22-2.39,2.21-4,2.96-1.6.74-3.47,1.12-5.61,1.14h-5.44v-2.99h5.41c1.66,0,3.1-.3,4.32-.89s2.22-1.37,3.01-2.32c.79-.96,1.38-2.04,1.75-3.26.4-1.2.59-2.43.59-3.68s-.2-2.54-.59-3.78c-.38-1.24-.97-2.33-1.78-3.29-.79-.95-1.8-1.73-3.01-2.32-1.2-.59-2.64-.91-4.32-.94-.89,0-1.72.08-2.5.25Z"/><path class="cls-2" d="m809.15,274.37v-32.48h3.16v29.57h1.63v2.92h-4.79Z"/><path class="cls-2" d="m839.92,270.22l-.05.05c-1.05,1.23-2.39,2.22-4,2.96-1.61.76-3.51,1.14-5.68,1.14s-4.08-.37-5.71-1.11c-1.61-.74-2.96-1.73-4.03-2.96-1.07-1.23-1.87-2.63-2.4-4.2-.53-1.58-.79-3.2-.79-4.87,0-1.84.3-3.57.89-5.19.59-1.6,1.45-2.99,2.57-4.17,1.14-1.19,2.5-2.12,4.1-2.82,1.6-.69,3.39-1.04,5.39-1.04,2.16,0,4.04.38,5.66,1.14,1.61.74,2.95,1.73,4,2.96,1.07,1.24,1.87,2.64,2.4,4.22.54,1.6.81,3.22.81,4.87v10.97c0,2.06-.44,3.89-1.31,5.48-.87,1.6-2.1,2.86-3.67,3.78-1.57.92-3.41,1.38-5.52,1.38v-2.96c2.26,0,4.04-.73,5.36-2.17,1.32-1.45,1.98-3.29,1.98-5.51v-1.95Zm-.59-12.77c-.38-1.24-.97-2.33-1.78-3.29-.79-.95-1.79-1.73-3.01-2.32-1.2-.59-2.64-.91-4.32-.94-1.62,0-3.03.28-4.25.84-1.22.56-2.24,1.31-3.06,2.25-.82.96-1.44,2.05-1.85,3.29-.41,1.25-.62,2.57-.62,3.95,0,1.28.2,2.54.59,3.75.39,1.22,1,2.3,1.8,3.24.79.96,1.8,1.72,3.04,2.3,1.23.58,2.68.86,4.35.86s3.13-.3,4.35-.89,2.22-1.37,3.01-2.32,1.38-2.03,1.75-3.24c.4-1.22.59-2.45.59-3.71s-.2-2.54-.59-3.78Z"/><path class="cls-2" d="m879,270.27c-1.07,1.23-2.4,2.22-4,2.96-1.62.76-3.51,1.14-5.68,1.14s-4.09-.37-5.71-1.11c-1.61-.74-2.96-1.73-4.03-2.96-1.07-1.23-1.87-2.63-2.4-4.2-.53-1.58-.79-3.2-.79-4.87,0-1.84.3-3.57.89-5.16.59-1.61,1.45-3.01,2.57-4.2,1.12-1.19,2.48-2.12,4.08-2.82,1.6-.69,3.4-1.04,5.41-1.04h12.84v15.69c0,1.28.2,2.4.59,3.36.41.96.95,1.75,1.61,2.4.66.64,1.43,1.12,2.32,1.43.89.33,1.83.49,2.82.49.41,0,.76.15,1.05.44.29.3.43.64.43,1.04s-.14.77-.43,1.06c-.29.3-.64.44-1.05.44-1.35,0-2.66-.22-3.93-.67-1.25-.43-2.36-1.09-3.33-1.98-.87-.81-1.59-1.79-2.15-2.94-.33.51-.7,1-1.11,1.48Zm-13.93-18.53c-1.22.56-2.24,1.32-3.06,2.27-.82.94-1.44,2.03-1.85,3.26-.41,1.25-.62,2.57-.62,3.95,0,1.28.21,2.54.62,3.75.4,1.22.99,2.3,1.78,3.24.81.96,1.83,1.72,3.06,2.3,1.24.58,2.68.86,4.35.86s3.13-.3,4.35-.89,2.22-1.37,3.01-2.32c.77-.96,1.36-2.03,1.75-3.24.38-1.22.57-2.45.57-3.71v-10.3h-9.68c-1.61,0-3.04.27-4.27.81Zm7.66-7.14c-.3.3-.68.44-1.14.44s-.84-.14-1.14-.43c-.3-.29-.44-.66-.44-1.12s.15-.84.44-1.14.67-.44,1.14-.44.84.14,1.14.43.45.66.45,1.12-.15.84-.45,1.14Zm4.73-.02c-.29.3-.66.44-1.12.44s-.84-.14-1.14-.42c-.3-.28-.45-.66-.45-1.14s.14-.84.43-1.12.67-.43,1.15-.43.83.14,1.12.42c.29.28.43.65.43,1.11s-.14.84-.43,1.14Z"/><path class="cls-2" d="m889.52,274.37v-2.99h6c.43,0,.79.14,1.08.43.29.29.43.64.43,1.05s-.14.79-.43,1.07c-.29.29-.65.43-1.08.43h-6Z"/><path class="cls-2" d="m895.53,274.37v-2.99h6c.43,0,.79.14,1.07.43s.43.64.43,1.05-.14.79-.43,1.07-.65.43-1.07.43h-6Z"/><path class="cls-2" d="m901.53,274.37v-2.99h6c.43,0,.79.14,1.08.43s.43.64.43,1.05-.14.79-.43,1.07-.65.43-1.08.43h-6Z"/><path class="cls-2" d="m907.53,274.37v-2.99h6c.43,0,.79.14,1.08.43.29.29.43.64.43,1.05s-.14.79-.43,1.07c-.29.29-.65.43-1.08.43h-6Z"/><path class="cls-2" d="m913.54,274.37v-2.99h6c.43,0,.79.14,1.07.43s.43.64.43,1.05-.14.79-.43,1.07-.65.43-1.07.43h-6Z"/><path class="cls-2" d="m919.54,274.37v-2.99h6c.43,0,.79.14,1.08.43s.43.64.43,1.05-.14.79-.43,1.07-.65.43-1.08.43h-6Z"/><path class="cls-2" d="m925.54,274.37v-2.99h6c.43,0,.79.14,1.08.43.29.29.43.64.43,1.05s-.14.79-.43,1.07c-.29.29-.65.43-1.08.43h-6Z"/><path class="cls-2" d="m931.54,274.37v-2.99h6c.43,0,.79.14,1.07.43s.43.64.43,1.05-.14.79-.43,1.07-.65.43-1.07.43h-6Z"/><path class="cls-2" d="m937.55,274.37v-2.99h6c.43,0,.79.14,1.08.43s.43.64.43,1.05-.14.79-.43,1.07-.65.43-1.08.43h-6Z"/><path class="cls-2" d="m943.55,274.37v-2.99h6c.43,0,.79.14,1.07.43.29.29.43.64.43,1.05s-.14.79-.43,1.07c-.29.29-.65.43-1.07.43h-6Z"/><path class="cls-2" d="m949.55,274.37v-2.99h6c.43,0,.79.14,1.07.43s.43.64.43,1.05-.14.79-.43,1.07-.65.43-1.07.43h-6Z"/><path class="cls-2" d="m965.14,268.39c-.59,1.32-1.38,2.42-2.35,3.31-.96.91-2.07,1.57-3.33,2-1.25.44-2.55.67-3.9.67v-2.99c.99,0,1.93-.16,2.82-.49.87-.33,1.65-.82,2.32-1.46.66-.64,1.19-1.44,1.58-2.4.41-.96.62-2.08.62-3.36v-12.75h4.79v2.89h-1.68v9.91c0,1.8-.29,3.35-.87,4.67Zm.45,13.98c-.3.3-.68.44-1.14.44s-.84-.14-1.14-.42c-.3-.28-.45-.66-.45-1.14s.15-.84.45-1.14c.3-.3.67-.44,1.14-.44s.84.14,1.14.43c.3.29.44.66.44,1.12s-.15.84-.44,1.14Z"/><path class="cls-2" d="m980.19,277.67c-.86,1.59-2.08,2.84-3.66,3.77s-3.41,1.38-5.52,1.38v-2.99c2.26,0,4.04-.72,5.36-2.16,1.32-1.44,1.98-3.27,1.98-5.5v-15.19h-1.63v-2.91h4.79v18.11c-.02,2.08-.46,3.91-1.32,5.5Z"/><path class="cls-2" d="m988.01,241.89v21.81c0,1.28.21,2.4.62,3.36.4.96.92,1.75,1.58,2.4.67.64,1.45,1.13,2.32,1.46.89.31,1.83.47,2.82.47.41,0,.77.15,1.06.44.3.3.44.65.44,1.06s-.15.74-.44,1.04c-.3.3-.65.44-1.06.44-1.35,0-2.65-.22-3.9-.67-1.27-.43-2.39-1.09-3.36-1.98-.96-.91-1.73-2.02-2.32-3.33-.56-1.32-.87-2.87-.91-4.67v-21.84h3.16Z"/><path class="cls-2" d="m995.35,274.37v-2.99h6c.43,0,.79.14,1.07.43s.43.64.43,1.05-.14.79-.43,1.07-.65.43-1.07.43h-6Z"/><path class="cls-2" d="m1001.35,274.37v-2.99h6c.43,0,.79.14,1.07.43s.43.64.43,1.05-.14.79-.43,1.07-.65.43-1.07.43h-6Z"/><path class="cls-2" d="m1022.69,258.24v-7.06c-.77-.16-1.61-.25-2.5-.25-1.68.02-3.12.32-4.32.91-1.22.59-2.22,1.37-3.01,2.32-.81.96-1.4,2.05-1.78,3.29-.4,1.23-.59,2.49-.59,3.78s.2,2.49.59,3.71c.38,1.2.96,2.28,1.75,3.24.79.96,1.79,1.73,3.01,2.32s2.67.89,4.35.89h12.75c.39,0,.74.15,1.04.44.3.3.44.65.44,1.06s-.15.74-.44,1.04c-.3.3-.64.44-1.04.44h-25.59v-2.99h4.3c-.39-.35-.77-.72-1.11-1.11-1.07-1.22-1.87-2.61-2.4-4.17-.53-1.58-.79-3.2-.79-4.87s.26-3.29.79-4.89c.53-1.58,1.33-2.99,2.4-4.22,1.07-1.23,2.4-2.22,4-2.96,1.61-.76,3.5-1.14,5.66-1.14,2.01,0,3.81.35,5.41,1.04v9.19h-2.92Zm-1.63-13.65c-.3.29-.68.43-1.14.43s-.84-.14-1.14-.42c-.3-.28-.45-.65-.45-1.11s.14-.86.43-1.15.67-.43,1.15-.43.84.14,1.14.42c.3.28.44.65.44,1.11s-.15.86-.44,1.15Z"/><path class="cls-2" d="m1032.95,274.37v-2.99h6c.43,0,.79.14,1.07.43s.43.64.43,1.05-.14.79-.43,1.07-.65.43-1.07.43h-6Z"/><path class="cls-2" d="m1038.95,274.37v-2.99h6c.43,0,.79.14,1.07.43s.43.64.43,1.05-.14.79-.43,1.07-.65.43-1.07.43h-6Z"/><path class="cls-2" d="m1044.95,274.37v-2.99h6c.43,0,.79.14,1.07.43s.43.64.43,1.05-.14.79-.43,1.07-.65.43-1.07.43h-6Z"/><path class="cls-2" d="m1050.95,274.37v-2.99h6c.43,0,.79.14,1.07.43s.43.64.43,1.05-.14.79-.43,1.07-.65.43-1.07.43h-6Z"/><path class="cls-2" d="m1056.96,274.37v-2.99h6c.43,0,.79.14,1.07.43s.43.64.43,1.05-.14.79-.43,1.07-.65.43-1.07.43h-6Z"/><path class="cls-2" d="m1062.96,274.37v-2.99h6c.43,0,.79.14,1.07.43s.43.64.43,1.05-.14.79-.43,1.07-.65.43-1.07.43h-6Z"/><path class="cls-2" d="m1068.96,274.37v-2.99h6c.43,0,.79.14,1.07.43s.43.64.43,1.05-.14.79-.43,1.07-.65.43-1.07.43h-6Z"/><path class="cls-2" d="m1074.96,274.37v-2.99h6c.43,0,.79.14,1.07.43s.43.64.43,1.05-.14.79-.43,1.07-.65.43-1.07.43h-6Z"/><path class="cls-2" d="m1080.97,274.37v-2.99h6c.43,0,.79.14,1.07.43s.43.64.43,1.05-.14.79-.43,1.07-.65.43-1.07.43h-6Z"/><path class="cls-2" d="m1086.97,274.37v-2.99h6c.43,0,.79.14,1.07.43s.43.64.43,1.05-.14.79-.43,1.07-.65.43-1.07.43h-6Z"/><path class="cls-2" d="m1092.97,274.37v-2.99h6c.43,0,.79.14,1.07.43s.43.64.43,1.05-.14.79-.43,1.07-.65.43-1.07.43h-6Z"/><path class="cls-2" d="m1139.44,271.38c.41,0,.77.15,1.06.44.3.3.44.65.44,1.06s-.15.76-.44,1.05c-.3.29-.65.43-1.06.43-1.35,0-2.65-.22-3.9-.67-1.27-.43-2.39-1.09-3.36-1.98-.86-.81-1.57-1.79-2.15-2.94-.33.53-.7,1.03-1.11,1.51-1.05,1.22-2.39,2.2-4,2.94-1.61.76-3.51,1.14-5.68,1.14s-4.08-.37-5.71-1.11c-1.61-.74-2.96-1.73-4.03-2.96-.41-.48-.78-.98-1.11-1.51-.56,1.14-1.28,2.12-2.15,2.94-.97.89-2.08,1.55-3.33,1.98-1.27.44-2.58.67-3.93.67v-2.99c.99,0,1.93-.16,2.82-.47.87-.33,1.65-.81,2.32-1.46.66-.64,1.19-1.44,1.61-2.4.39-.96.59-2.07.59-3.36v-2.47c0-1.84.3-3.57.89-5.16.59-1.61,1.45-3.01,2.57-4.2,1.12-1.19,2.48-2.12,4.08-2.82,1.6-.69,3.4-1.04,5.41-1.04,2.16,0,4.04.38,5.66,1.14,1.61.74,2.95,1.73,4,2.96,1.07,1.24,1.87,2.64,2.4,4.22.53,1.6.79,3.23.79,4.89v2.47c0,1.28.21,2.4.62,3.36.4.96.92,1.75,1.58,2.4.67.64,1.45,1.13,2.32,1.46.89.31,1.83.47,2.82.47Zm-11.07-13.93c-.38-1.24-.97-2.33-1.78-3.29-.79-.95-1.8-1.73-3.01-2.32-1.2-.59-2.64-.9-4.32-.91-1.61,0-3.03.27-4.25.81-1.23.56-2.26,1.31-3.09,2.25-.81.96-1.42,2.05-1.83,3.29-.41,1.25-.62,2.57-.62,3.95,0,1.28.2,2.54.59,3.75.4,1.22,1,2.3,1.8,3.24.79.96,1.8,1.72,3.04,2.3,1.24.58,2.68.86,4.35.86s3.13-.3,4.35-.89,2.22-1.37,3.01-2.32,1.38-2.03,1.75-3.24c.38-1.22.58-2.45.59-3.71,0-1.28-.2-2.54-.59-3.78Z"/><path class="cls-2" d="m1146.77,241.91h3.16v21.81c0,2.06-.44,3.89-1.31,5.48-.87,1.6-2.09,2.86-3.66,3.78-1.56.92-3.41,1.38-5.53,1.38v-2.99c2.27,0,4.06-.72,5.37-2.16,1.31-1.44,1.96-3.27,1.96-5.5v-21.81Z"/><path class="cls-2" d="m1153.27,274.37v-32.48h3.16v29.57h1.63v2.92h-4.79Z"/></g></svg>